<svg width="129" height="129" viewBox="0 0 129 129" fill="none" xmlns="http://www.w3.org/2000/svg">
<path fill-rule="evenodd" clip-rule="evenodd" d="M126.341 82.6223C126.341 81.1864 125.177 80.0223 123.741 80.0223H10.0172C8.58123 80.0223 7.41717 81.1864 7.41717 82.6223C7.41717 84.0583 8.58123 85.2223 10.0172 85.2223H25.2609C26.6969 85.2223 27.8609 86.3864 27.8609 87.8223C27.8609 89.2583 26.6969 90.4223 25.2609 90.4223H22.2117C20.7758 90.4223 19.6117 91.5864 19.6117 93.0223C19.6117 94.4583 20.7758 95.6223 22.2117 95.6223H31.2609C32.6969 95.6223 33.8609 96.7864 33.8609 98.2223C33.8609 99.6583 32.6969 100.822 31.2609 100.822H27.2117C25.7758 100.822 24.6117 101.986 24.6117 103.422C24.6117 104.858 25.7758 106.022 27.2117 106.022H89.1454C90.5814 106.022 91.7454 104.858 91.7454 103.422C91.7454 101.986 90.5814 100.822 89.1454 100.822H75.4412C74.0052 100.822 72.8412 99.6583 72.8412 98.2223C72.8412 96.7864 74.0052 95.6223 75.4412 95.6223H115.644C117.08 95.6223 118.244 94.4583 118.244 93.0223C118.244 91.5864 117.08 90.4223 115.644 90.4223H102.193C100.758 90.4223 99.5935 89.2583 99.5935 87.8223C99.5935 86.3864 100.758 85.2223 102.193 85.2223H123.741C125.177 85.2223 126.341 84.0583 126.341 82.6223ZM42.1995 100.822C40.7636 100.822 39.5995 99.6583 39.5995 98.2223C39.5995 96.7864 40.7636 95.6223 42.1995 95.6223H50.7412C52.1771 95.6223 53.3412 96.7864 53.3412 98.2223C53.3412 99.6583 52.1771 100.822 50.7412 100.822H42.1995Z" fill="#E4ECFE"/>
<path d="M94.9734 103.422C94.9734 101.986 96.1375 100.822 97.5734 100.822H109.948C111.384 100.822 112.548 101.986 112.548 103.422C112.548 104.858 111.384 106.022 109.948 106.022H97.5734C96.1375 106.022 94.9734 104.858 94.9734 103.422Z" fill="#E4ECFE"/>
<path d="M13.8184 93.0223C13.8184 91.5864 12.6543 90.4223 11.2184 90.4223H4.94119C3.50525 90.4223 2.34119 91.5864 2.34119 93.0223C2.34119 94.4583 3.50525 95.6223 4.94119 95.6223H11.2184C12.6543 95.6223 13.8184 94.4583 13.8184 93.0223Z" fill="#E4ECFE"/>
<rect x="32.6813" y="51.4073" width="31.2831" height="34.4114" fill="#5388FE"/>
<path d="M32.6814 51.4073H63.9645L55.3616 42.0223H24.0785L32.6814 51.4073Z" fill="#2D56B2"/>
<path d="M32.6813 51.4073V62.7474H21.3412L32.6813 51.4073Z" fill="#2D56B2"/>
<rect x="63.9644" y="51.4073" width="35.9756" height="34.4114" fill="#2D56B2"/>
<path d="M63.9644 51.4073H99.94L107.761 66.2668H71.7852L63.9644 51.4073Z" fill="#88AAF4"/>
<path d="M63.9644 51.4073H99.94L107.761 44.3686H71.7852L63.9644 51.4073Z" fill="#B7CEFF"/>
<rect x="37.3412" y="58.0223" width="16" height="4" fill="#2D56B2"/>
<path d="M26.3412 28.143L32.8219 34.2463" stroke="#2D56B2" stroke-width="2" stroke-linecap="round"/>
<path d="M39.137 23.0223L40.7227 30.7709" stroke="#2D56B2" stroke-width="2" stroke-linecap="round"/>
<path d="M102.882 28.143L96.401 34.2463" stroke="#2D56B2" stroke-width="2" stroke-linecap="round"/>
<path d="M90.0859 23.0223L88.5002 30.7709" stroke="#2D56B2" stroke-width="2" stroke-linecap="round"/>
</svg>
